<mxfile host="65bd71144e">
    <diagram id="iWzFqbBg3XuW0s0-GOiT" name="Page-1">
        <mxGraphModel dx="1838" dy="1016" grid="0" gridSize="10" guides="1" tooltips="1" connect="1" arrows="1" fold="1" page="0" pageScale="1" pageWidth="850" pageHeight="1100" math="1" shadow="0">
            <root>
                <mxCell id="0"/>
                <mxCell id="1" parent="0"/>
                <mxCell id="2" value="Gauss I&lt;br&gt;$$P(t)=y_0+\Delta y_0t+\frac{\Delta^2y_{-1}}{2!}t(t-1)+\frac{\Delta^2y_{-1}}{2!}t(t-1)(t+1)+\frac{\Delta^2y_{-1}}{2!}t(t-1)(t+1)(t-2)+\ldots&lt;br&gt;$$" style="shape=note;whiteSpace=wrap;html=1;backgroundOutline=1;darkOpacity=0.05;" parent="1" vertex="1">
                    <mxGeometry x="70" y="70" width="680" height="140" as="geometry"/>
                </mxCell>
                <mxCell id="3" value="Thuật toán nội suy trung tâm" style="text;html=1;strokeColor=none;fillColor=none;align=center;verticalAlign=middle;whiteSpace=wrap;rounded=0;fontSize=18;" parent="1" vertex="1">
                    <mxGeometry x="308" y="10" width="235" height="30" as="geometry"/>
                </mxCell>
                <mxCell id="6" value="" style="edgeStyle=none;html=1;fontSize=12;" parent="1" source="4" target="5" edge="1">
                    <mxGeometry relative="1" as="geometry"/>
                </mxCell>
                <mxCell id="4" value="begin" style="ellipse;whiteSpace=wrap;html=1;fontSize=12;" parent="1" vertex="1">
                    <mxGeometry x="180" y="250" width="120" height="80" as="geometry"/>
                </mxCell>
                <mxCell id="8" value="" style="edgeStyle=none;html=1;fontSize=12;" parent="1" source="5" target="7" edge="1">
                    <mxGeometry relative="1" as="geometry"/>
                </mxCell>
                <mxCell id="5" value="$$x_i,y_i,i=\overline{0,n}$$" style="shape=parallelogram;perimeter=parallelogramPerimeter;whiteSpace=wrap;html=1;fixedSize=1;" parent="1" vertex="1">
                    <mxGeometry x="170" y="380" width="140" height="60" as="geometry"/>
                </mxCell>
                <mxCell id="10" value="" style="edgeStyle=none;html=1;fontSize=12;" parent="1" source="7" target="9" edge="1">
                    <mxGeometry relative="1" as="geometry"/>
                </mxCell>
                <mxCell id="7" value="$$middle=\frac{n}{2}\\&lt;br&gt;left=right=middle\\&lt;br&gt;p=\left[\Delta y_0,y_0\right]$$" style="whiteSpace=wrap;html=1;" parent="1" vertex="1">
                    <mxGeometry x="135" y="490" width="210" height="90" as="geometry"/>
                </mxCell>
                <mxCell id="12" value="" style="edgeStyle=none;html=1;fontSize=12;exitX=1;exitY=0.5;exitDx=0;exitDy=0;entryX=0;entryY=0.5;entryDx=0;entryDy=0;" parent="1" source="20" target="11" edge="1">
                    <mxGeometry relative="1" as="geometry">
                        <mxPoint x="270" y="950" as="sourcePoint"/>
                    </mxGeometry>
                </mxCell>
                <mxCell id="22" value="yes" style="edgeLabel;html=1;align=center;verticalAlign=middle;resizable=0;points=[];fontSize=12;" parent="12" vertex="1" connectable="0">
                    <mxGeometry x="-0.4884" y="-4" relative="1" as="geometry">
                        <mxPoint as="offset"/>
                    </mxGeometry>
                </mxCell>
                <mxCell id="21" value="" style="edgeStyle=none;html=1;fontSize=12;" parent="1" source="9" target="20" edge="1">
                    <mxGeometry relative="1" as="geometry"/>
                </mxCell>
                <mxCell id="9" value="flag_direction = -1&lt;br&gt;delta_index = 0&lt;br&gt;k = 2" style="whiteSpace=wrap;html=1;" parent="1" vertex="1">
                    <mxGeometry x="180" y="630" width="120" height="60" as="geometry"/>
                </mxCell>
                <mxCell id="14" value="" style="edgeStyle=none;html=1;fontSize=12;" parent="1" source="11" target="13" edge="1">
                    <mxGeometry relative="1" as="geometry"/>
                </mxCell>
                <mxCell id="15" value="yes" style="edgeLabel;html=1;align=center;verticalAlign=middle;resizable=0;points=[];fontSize=12;" parent="14" vertex="1" connectable="0">
                    <mxGeometry x="-0.3225" y="-1" relative="1" as="geometry">
                        <mxPoint as="offset"/>
                    </mxGeometry>
                </mxCell>
                <mxCell id="24" value="" style="edgeStyle=none;html=1;fontSize=12;" parent="1" source="11" target="23" edge="1">
                    <mxGeometry relative="1" as="geometry"/>
                </mxCell>
                <mxCell id="25" value="no" style="edgeLabel;html=1;align=center;verticalAlign=middle;resizable=0;points=[];fontSize=12;" parent="24" vertex="1" connectable="0">
                    <mxGeometry x="-0.2984" y="-2" relative="1" as="geometry">
                        <mxPoint as="offset"/>
                    </mxGeometry>
                </mxCell>
                <mxCell id="11" value="flag_direction = -1" style="rhombus;whiteSpace=wrap;html=1;" parent="1" vertex="1">
                    <mxGeometry x="480" y="750" width="140" height="80" as="geometry"/>
                </mxCell>
                <mxCell id="17" value="" style="edgeStyle=none;html=1;fontSize=12;" parent="1" source="13" target="16" edge="1">
                    <mxGeometry relative="1" as="geometry"/>
                </mxCell>
                <mxCell id="13" value="delta_index = delta_index - 1&lt;br&gt;right = right + 1" style="whiteSpace=wrap;html=1;" parent="1" vertex="1">
                    <mxGeometry x="465" y="890" width="170" height="60" as="geometry"/>
                </mxCell>
                <mxCell id="31" value="" style="edgeStyle=none;html=1;fontSize=12;" parent="1" source="16" target="30" edge="1">
                    <mxGeometry relative="1" as="geometry"/>
                </mxCell>
                <mxCell id="16" value="$$temp=\frac{\Delta^ky_{delta\_index}}{k!}t\times\ldots\times(t-flag\_direction\times delta\_index)$$" style="whiteSpace=wrap;html=1;" parent="1" vertex="1">
                    <mxGeometry x="340" y="1000" width="420" height="60" as="geometry"/>
                </mxCell>
                <mxCell id="29" style="edgeStyle=none;html=1;exitX=0;exitY=0.5;exitDx=0;exitDy=0;entryX=0.5;entryY=1;entryDx=0;entryDy=0;fontSize=12;" parent="1" source="18" target="20" edge="1">
                    <mxGeometry relative="1" as="geometry">
                        <Array as="points">
                            <mxPoint x="240" y="1140"/>
                        </Array>
                    </mxGeometry>
                </mxCell>
                <mxCell id="18" value="flag_direction = -flacdirection&lt;br&gt;k = k + 1" style="whiteSpace=wrap;html=1;" parent="1" vertex="1">
                    <mxGeometry x="795" y="1110" width="180" height="60" as="geometry"/>
                </mxCell>
                <mxCell id="36" value="" style="edgeStyle=none;html=1;fontSize=12;" parent="1" source="20" target="35" edge="1">
                    <mxGeometry relative="1" as="geometry"/>
                </mxCell>
                <mxCell id="39" value="no" style="edgeLabel;html=1;align=center;verticalAlign=middle;resizable=0;points=[];fontSize=12;" parent="36" vertex="1" connectable="0">
                    <mxGeometry x="-0.5398" y="1" relative="1" as="geometry">
                        <mxPoint as="offset"/>
                    </mxGeometry>
                </mxCell>
                <mxCell id="20" value="left &amp;gt;= 0 or right &amp;lt; n - 1" style="rhombus;whiteSpace=wrap;html=1;" parent="1" vertex="1">
                    <mxGeometry x="155" y="750" width="170" height="80" as="geometry"/>
                </mxCell>
                <mxCell id="27" value="" style="edgeStyle=none;html=1;fontSize=12;" parent="1" source="23" target="26" edge="1">
                    <mxGeometry relative="1" as="geometry"/>
                </mxCell>
                <mxCell id="23" value="left = left - 1" style="whiteSpace=wrap;html=1;" parent="1" vertex="1">
                    <mxGeometry x="825" y="760" width="120" height="60" as="geometry"/>
                </mxCell>
                <mxCell id="32" style="edgeStyle=none;html=1;exitX=0.5;exitY=1;exitDx=0;exitDy=0;entryX=0.5;entryY=0;entryDx=0;entryDy=0;fontSize=12;" parent="1" source="26" target="30" edge="1">
                    <mxGeometry relative="1" as="geometry"/>
                </mxCell>
                <mxCell id="26" value="&lt;span&gt;$$temp=\frac{\Delta^ky_{delta\_index}}{k!}t\times\ldots\times(t-flag\_direction\times delta\_index)$$&lt;/span&gt;" style="whiteSpace=wrap;html=1;" parent="1" vertex="1">
                    <mxGeometry x="670" y="890" width="430" height="60" as="geometry"/>
                </mxCell>
                <mxCell id="33" style="edgeStyle=none;html=1;exitX=0.5;exitY=1;exitDx=0;exitDy=0;fontSize=12;entryX=0.5;entryY=0;entryDx=0;entryDy=0;" parent="1" source="30" target="18" edge="1">
                    <mxGeometry relative="1" as="geometry">
                        <mxPoint x="1060" y="1050" as="targetPoint"/>
                        <Array as="points"/>
                    </mxGeometry>
                </mxCell>
                <mxCell id="30" value="p.append(temp)" style="whiteSpace=wrap;html=1;" parent="1" vertex="1">
                    <mxGeometry x="825" y="1000" width="120" height="60" as="geometry"/>
                </mxCell>
                <mxCell id="38" value="" style="edgeStyle=none;html=1;fontSize=12;" parent="1" source="35" target="37" edge="1">
                    <mxGeometry relative="1" as="geometry"/>
                </mxCell>
                <mxCell id="35" value="mảng hệ số p" style="shape=parallelogram;perimeter=parallelogramPerimeter;whiteSpace=wrap;html=1;fixedSize=1;" parent="1" vertex="1">
                    <mxGeometry x="-30" y="760" width="120" height="60" as="geometry"/>
                </mxCell>
                <mxCell id="37" value="end" style="ellipse;whiteSpace=wrap;html=1;" parent="1" vertex="1">
                    <mxGeometry x="-30" y="1110" width="120" height="60" as="geometry"/>
                </mxCell>
            </root>
        </mxGraphModel>
    </diagram>
</mxfile>